<?xml version="1.0" encoding="UTF-8" standalone="no"?>
<svg
   xmlns:dc="http://purl.org/dc/elements/1.1/"
   xmlns:cc="http://creativecommons.org/ns#"
   xmlns:rdf="http://www.w3.org/1999/02/22-rdf-syntax-ns#"
   xmlns:svg="http://www.w3.org/2000/svg"
   xmlns="http://www.w3.org/2000/svg"
   xmlns:sodipodi="http://sodipodi.sourceforge.net/DTD/sodipodi-0.dtd"
   xmlns:inkscape="http://www.inkscape.org/namespaces/inkscape"
   id="svg"
   version="1.1"
   width="16.000368"
   height="16.000324"
   viewBox="0 0 16.000368 16.000324"
   sodipodi:docname="icon_fts_new.svg"
   inkscape:version="0.92.5 (2060ec1f9f, 2020-04-08)">
  <metadata
     id="metadata13">
    <rdf:RDF>
      <cc:Work
         rdf:about="">
        <dc:format>image/svg+xml</dc:format>
        <dc:type
           rdf:resource="http://purl.org/dc/dcmitype/StillImage" />
        <dc:title></dc:title>
      </cc:Work>
    </rdf:RDF>
  </metadata>
  <defs
     id="defs11" />
  <sodipodi:namedview
     pagecolor="#ffffff"
     bordercolor="#666666"
     borderopacity="1"
     objecttolerance="10"
     gridtolerance="10"
     guidetolerance="10"
     inkscape:pageopacity="0"
     inkscape:pageshadow="2"
     inkscape:window-width="2021"
     inkscape:window-height="795"
     id="namedview9"
     showgrid="false"
     inkscape:zoom="13.350176"
     inkscape:cx="69.467708"
     inkscape:cy="14.980911"
     inkscape:window-x="321"
     inkscape:window-y="129"
     inkscape:window-maximized="0"
     inkscape:current-layer="svg" />
  <path
     style="fill:#000080;fill-rule:evenodd;stroke:none;stroke-width:0.04002797"
     inkscape:connector-curvature="0"
     d="m 0.07714864,0.01764429 c -0.0219,0.0111 -0.0488,0.038 -0.0598,0.0598 -0.0161,0.0317 -0.0194,1.62422001 -0.0163,7.94480001 l 0.004,7.9050797 0.0365,0.0365 0.0365,0.0365 c 5.28310676,0 10.56621336,0 15.84932036,0 l 0.0365,-0.0365 0.0365,-0.0365 V 8.0026643 0.07800429 l -0.0365,-0.0365 -0.0365,-0.0365 -7.9050804,-0.004 c -6.32058,-0.003 -7.91304996,2.4e-4 -7.94479996,0.0163"
     id="path1"
     sodipodi:nodetypes="ccsccccccccccsc" />
  <g
     id="g94"
     transform="matrix(0.0150141,-0.01388744,0.01495897,0.0151627,0.44367119,7.2490236)"
     style="fill:#ffffff">
    <path
       id="path27"
       d="m 481.6,98.352 c -8,-8 -20.8,-8 -28.8,0 l -192,192 c -4.8,4.8 -12,4.8 -16.8,0 l -46.4,-46.4 c -4.8,-4.8 -4.8,-12 0,-16.8 l 192,-192 c 8,-8 8,-20.8 0,-28.8 -8,-8 -20.8,-8 -28.8,0 l -192,192 c -20.8,20.8 -20.8,54.4 0,75.2 l 8.8,8.8 -141.6,140.8 c -8,8 -8,20.8 0,28.8 8,8 20.8,8 28.8,0 l 141.6,-141.6 8.8,8.8 c 20.8,20.8 54.4,20.8 75.2,0 l 192,-192 c 8,-8 8,-20.8 -0.8,-28.8 z"
       style="fill:#ffffff"
       inkscape:connector-curvature="0" />
    <g
       id="g33"
       style="fill:#ffffff">
	<path
   id="path29"
   d="m 481.6,98.352 c -8,-8 -20.8,-8 -28.8,0 l -164.8,164.8 -27.2,27.2 c -4.8,4.8 -12,4.8 -16.8,0 l -46.4,-46.4 c -4.8,-4.8 -4.8,-12 0,-16.8 l 27.2,-27.2 164.8,-164.8 c 8,-8 8,-20.8 0,-28.8 -8,-8 -20.8,-8 -28.8,0 L 196,171.152 c -20.8,20.8 -20.8,54.4 0,75.2 l 8.8,8.8 -27.2,27.2 -114.4,113.6 c -8,8 -8,20.8 0,28.8 8,8 20.8,8 28.8,0 l 113.6,-113.6 27.2,-27.2 8.8,8.8 c 20.8,20.8 54.4,20.8 75.2,0 l 164.8,-164.8 c 8.8,-8.8 8.8,-21.6 0,-29.6 z"
   style="fill:#ffffff"
   inkscape:connector-curvature="0" />

	<circle
   id="circle31"
   r="45.599998"
   cy="442.35199"
   cx="45.599998"
   style="fill:#ffffff" />

</g>
    <ellipse
       id="ellipse35"
       ry="24"
       rx="16.799999"
       cy="426.73401"
       cx="61.750999"
       style="fill:#ffffff"
       transform="matrix(0.7072,-0.707,0.707,0.7072,-283.624,168.6032)" />
    <g
       id="g37"
       style="fill:#ffffff">
</g>
    <g
       id="g39"
       style="fill:#ffffff">
</g>
    <g
       id="g41"
       style="fill:#ffffff">
</g>
    <g
       id="g43"
       style="fill:#ffffff">
</g>
    <g
       id="g45"
       style="fill:#ffffff">
</g>
    <g
       id="g47"
       style="fill:#ffffff">
</g>
    <g
       id="g49"
       style="fill:#ffffff">
</g>
    <g
       id="g51"
       style="fill:#ffffff">
</g>
    <g
       id="g53"
       style="fill:#ffffff">
</g>
    <g
       id="g55"
       style="fill:#ffffff">
</g>
    <g
       id="g57"
       style="fill:#ffffff">
</g>
    <g
       id="g59"
       style="fill:#ffffff">
</g>
    <g
       id="g61"
       style="fill:#ffffff">
</g>
    <g
       id="g63"
       style="fill:#ffffff">
</g>
    <g
       id="g65"
       style="fill:#ffffff">
</g>
  </g>
</svg>
