<?xml version="1.0" encoding="UTF-8" standalone="no"?>
<svg
   xmlns:dc="http://purl.org/dc/elements/1.1/"
   xmlns:cc="http://creativecommons.org/ns#"
   xmlns:rdf="http://www.w3.org/1999/02/22-rdf-syntax-ns#"
   xmlns:svg="http://www.w3.org/2000/svg"
   xmlns="http://www.w3.org/2000/svg"
   xmlns:sodipodi="http://sodipodi.sourceforge.net/DTD/sodipodi-0.dtd"
   xmlns:inkscape="http://www.inkscape.org/namespaces/inkscape"
   width="300"
   height="50"
   viewBox="0 0 1050.87 139.84"
   version="1.1"
   id="svg8"
   inkscape:version="0.92.5 (2060ec1f9f, 2020-04-08)"
   sodipodi:docname="logo_fts.svg">
  <defs
     id="defs2" />
  <sodipodi:namedview
     id="base"
     pagecolor="#ffffff"
     bordercolor="#666666"
     borderopacity="1.0"
     inkscape:pageopacity="0.0"
     inkscape:pageshadow="2"
     inkscape:zoom="1.979899"
     inkscape:cx="279.37328"
     inkscape:cy="73.880283"
     inkscape:document-units="mm"
     inkscape:current-layer="g930"
     inkscape:document-rotation="0"
     showgrid="false"
     fit-margin-top="0"
     fit-margin-left="0"
     fit-margin-right="0"
     fit-margin-bottom="0"
     inkscape:window-width="1889"
     inkscape:window-height="644"
     inkscape:window-x="501"
     inkscape:window-y="238"
     inkscape:window-maximized="0"
     viewbox-width="1050.87" />
  <metadata
     id="metadata5">
    <rdf:RDF>
      <cc:Work
         rdf:about="">
        <dc:format>image/svg+xml</dc:format>
        <dc:type
           rdf:resource="http://purl.org/dc/dcmitype/StillImage" />
        <dc:title></dc:title>
      </cc:Work>
    </rdf:RDF>
  </metadata>
  <g
     inkscape:label="Layer 1"
     inkscape:groupmode="layer"
     id="layer1"
     transform="translate(249.78138,125.33605)">
    <g
       transform="matrix(0.76597759,0,0,0.69422235,-175.77072,-516.88606)"
       id="g930"
       height="40"
       width="230"
       viewBox="0 0 644.18524 111.87158">
      <g
         id="g889"
         transform="matrix(-0.13592136,-0.3100443,0.3947227,-0.1650825,398.43619,857.56556)">
        <g
           id="g1107"
           transform="matrix(0.67933325,0.59109595,-0.89191291,0.62396782,404.94114,313.79249)"
           style="fill:#000080">
          <path
             id="path1040"
             d="m 481.6,98.352 c -8,-8 -20.8,-8 -28.8,0 l -192,192 c -4.8,4.8 -12,4.8 -16.8,0 l -46.4,-46.4 c -4.8,-4.8 -4.8,-12 0,-16.8 l 192,-192 c 8,-8 8,-20.8 0,-28.8 -8,-8 -20.8,-8 -28.8,0 l -192,192 c -20.8,20.8 -20.8,54.4 0,75.2 l 8.8,8.8 -141.6,140.8 c -8,8 -8,20.8 0,28.8 8,8 20.8,8 28.8,0 l 141.6,-141.6 8.8,8.8 c 20.8,20.8 54.4,20.8 75.2,0 l 192,-192 c 8,-8 8,-20.8 -0.8,-28.8 z"
             style="fill:#000080"
             inkscape:connector-curvature="0" />
          <g
             id="g1046"
             style="fill:#000080">
            <path
               id="path1042"
               d="m 481.6,98.352 c -8,-8 -20.8,-8 -28.8,0 l -164.8,164.8 -27.2,27.2 c -4.8,4.8 -12,4.8 -16.8,0 l -46.4,-46.4 c -4.8,-4.8 -4.8,-12 0,-16.8 l 27.2,-27.2 164.8,-164.8 c 8,-8 8,-20.8 0,-28.8 -8,-8 -20.8,-8 -28.8,0 L 196,171.152 c -20.8,20.8 -20.8,54.4 0,75.2 l 8.8,8.8 -27.2,27.2 -114.4,113.6 c -8,8 -8,20.8 0,28.8 8,8 20.8,8 28.8,0 l 113.6,-113.6 27.2,-27.2 8.8,8.8 c 20.8,20.8 54.4,20.8 75.2,0 l 164.8,-164.8 c 8.8,-8.8 8.8,-21.6 0,-29.6 z"
               style="fill:#000080"
               inkscape:connector-curvature="0" />
            <circle
               id="circle1044"
               r="45.599998"
               cy="442.35199"
               cx="45.599998"
               style="fill:#000080" />
          </g>
          <ellipse
             id="ellipse1048"
             ry="24"
             rx="16.799999"
             cy="426.73401"
             cx="61.750999"
             style="fill:#000080"
             transform="matrix(0.7072,-0.707,0.707,0.7072,-283.624,168.6032)" />
          <g
             id="g1050"
             style="fill:#000080" />
          <g
             id="g1052"
             style="fill:#000080" />
          <g
             id="g1054"
             style="fill:#000080" />
          <g
             id="g1056"
             style="fill:#000080" />
          <g
             id="g1058"
             style="fill:#000080" />
          <g
             id="g1060"
             style="fill:#000080" />
          <g
             id="g1062"
             style="fill:#000080" />
          <g
             id="g1064"
             style="fill:#000080" />
          <g
             id="g1066"
             style="fill:#000080" />
          <g
             id="g1068"
             style="fill:#000080" />
          <g
             id="g1070"
             style="fill:#000080" />
          <g
             id="g1072"
             style="fill:#000080" />
          <g
             id="g1074"
             style="fill:#000080" />
          <g
             id="g1076"
             style="fill:#000080" />
          <g
             id="g1078"
             style="fill:#000080" />
        </g>
      </g>
      <text
         xml:space="preserve"
         style="font-style:normal;font-variant:normal;font-weight:bold;font-stretch:normal;font-size:114.82363129px;line-height:1.25;font-family:'Latin Modern Roman Slanted';-inkscape-font-specification:'Latin Modern Roman Slanted, Bold';font-variant-ligatures:normal;font-variant-caps:normal;font-variant-numeric:normal;font-feature-settings:normal;text-align:start;letter-spacing:0px;word-spacing:0px;writing-mode:lr-tb;text-anchor:start;fill:#000000;fill-opacity:1;stroke:none"
         x="-95.492805"
         y="706.37292"
         id="text920"><tspan
           sodipodi:role="line"
           x="-95.492805"
           y="706.37292"
           id="tspan918"
           style="font-style:normal;font-variant:normal;font-weight:bold;font-stretch:normal;font-size:114.82363129px;font-family:'Latin Modern Roman Slanted';-inkscape-font-specification:'Latin Modern Roman Slanted, Bold';font-variant-ligatures:normal;font-variant-caps:normal;font-variant-numeric:normal;font-feature-settings:normal;text-align:start;writing-mode:lr-tb;text-anchor:start"><tspan
             x="-95.492805"
             y="706.37292"
             style="font-style:normal;font-variant:normal;font-weight:bold;font-stretch:normal;font-size:114.82363129px;font-family:'Latin Modern Roman Slanted';-inkscape-font-specification:'Latin Modern Roman Slanted, Bold';font-variant-ligatures:normal;font-variant-caps:normal;font-variant-numeric:normal;font-feature-settings:normal;text-align:start;writing-mode:lr-tb;text-anchor:start;fill:#000080"
             id="tspan916">Finetuning   Scheduler</tspan></tspan></text>
    </g>
  </g>
</svg>
