<?xml version="1.0" encoding="UTF-8" standalone="no"?>
<svg
   width="307"
   height="46"
   viewBox="0 0 1075.3903 128.6528"
   version="1.1"
   id="svg8"
   inkscape:version="1.1.2 (0a00cf5339, 2022-02-04)"
   sodipodi:docname="logo_fts.svg"
   inkscape:export-filename="/run/user/1000/gvfs/sftp:host=speediedl/home/speediedan/repos/finetuning-scheduler/docs/source/_static/images/logos/logo_fts.png"
   inkscape:export-xdpi="126.51468"
   inkscape:export-ydpi="126.51468"
   xmlns:inkscape="http://www.inkscape.org/namespaces/inkscape"
   xmlns:sodipodi="http://sodipodi.sourceforge.net/DTD/sodipodi-0.dtd"
   xmlns="http://www.w3.org/2000/svg"
   xmlns:svg="http://www.w3.org/2000/svg"
   xmlns:rdf="http://www.w3.org/1999/02/22-rdf-syntax-ns#"
   xmlns:cc="http://creativecommons.org/ns#"
   xmlns:dc="http://purl.org/dc/elements/1.1/">
  <defs
     id="defs2" />
  <sodipodi:namedview
     id="base"
     pagecolor="#ffffff"
     bordercolor="#666666"
     borderopacity="1.0"
     inkscape:pageopacity="0.0"
     inkscape:pageshadow="2"
     inkscape:zoom="1.979899"
     inkscape:cx="19.192898"
     inkscape:cy="74.246212"
     inkscape:document-units="mm"
     inkscape:current-layer="g930"
     inkscape:document-rotation="0"
     showgrid="false"
     fit-margin-top="0"
     fit-margin-left="0"
     fit-margin-right="0"
     fit-margin-bottom="0"
     inkscape:window-width="1934"
     inkscape:window-height="991"
     inkscape:window-x="26"
     inkscape:window-y="23"
     inkscape:window-maximized="0"
     viewbox-width="1050.87"
     inkscape:pagecheckerboard="0" />
  <metadata
     id="metadata5">
    <rdf:RDF>
      <cc:Work
         rdf:about="">
        <dc:format>image/svg+xml</dc:format>
        <dc:type
           rdf:resource="http://purl.org/dc/dcmitype/StillImage" />
      </cc:Work>
    </rdf:RDF>
  </metadata>
  <g
     inkscape:label="Layer 1"
     inkscape:groupmode="layer"
     id="layer1"
     transform="translate(249.78138,111.32445)">
    <g
       transform="matrix(0.76597759,0,0,0.69422235,-175.77072,-516.88606)"
       id="g930"
       height="40"
       width="230"
       viewBox="0 0 644.18524 111.87158">
      <g
         id="g889"
         transform="matrix(-0.13592136,-0.3100443,0.3947227,-0.1650825,483.89766,883.05065)"
         inkscape:export-xdpi="96.774956"
         inkscape:export-ydpi="96.774956">
        <g
           id="g1107"
           transform="matrix(0.67933325,0.59109595,-0.89191291,0.62396782,404.94114,313.79249)"
           style="fill:#000080">
          <g
             id="g1046"
             style="fill:#000080" />
          <g
             id="g1050"
             style="fill:#000080" />
          <g
             id="g1052"
             style="fill:#000080" />
          <g
             id="g1054"
             style="fill:#000080" />
          <g
             id="g1056"
             style="fill:#000080" />
          <g
             id="g1058"
             style="fill:#000080" />
          <g
             id="g1060"
             style="fill:#000080" />
          <g
             id="g1062"
             style="fill:#000080" />
          <g
             id="g1064"
             style="fill:#000080" />
          <g
             id="g1066"
             style="fill:#000080" />
          <g
             id="g1068"
             style="fill:#000080" />
          <g
             id="g1070"
             style="fill:#000080" />
          <g
             id="g1072"
             style="fill:#000080" />
          <g
             id="g1074"
             style="fill:#000080" />
          <g
             id="g1076"
             style="fill:#000080" />
          <g
             id="g1078"
             style="fill:#000080" />
        </g>
      </g>
      <g
         aria-label="Fine-Tuning   Scheduler"
         id="text920"
         style="font-weight:bold;font-size:114.824px;line-height:1.25;font-family:'Latin Modern Roman Slanted';-inkscape-font-specification:'Latin Modern Roman Slanted, Bold';letter-spacing:0px;word-spacing:0px">
        <path
           id="path153"
           style="fill:#000080"
           d="m 1301.5687,664.11769 c 1.0334,-6.08567 -4.5929,-9.41556 -10.5638,-9.41556 -8.0377,0 -13.5492,5.7412 -17.4532,12.97511 l 2.1816,-12.97511 -19.1756,0.91859 -0.9186,5.39673 c 7.1191,0 7.9229,0 7.1191,4.47813 l -5.856,35.48062 h -7.9229 l -0.9186,5.39672 14.5827,-0.34447 c 4.3633,0 11.712,0 15.7309,0.34447 l 0.9186,-5.39672 h -9.9897 l 3.3299,-20.0942 c 1.3779,-8.03768 6.5449,-22.04621 18.0273,-22.04621 0,0 -2.5261,1.95201 -3.1002,5.2819 -0.689,4.70779 2.5261,7.00427 5.856,7.00427 3.3299,0 7.4636,-2.41131 8.1525,-7.00427 z m -59.249,28.82083 c 0.3445,-2.06683 -1.8372,-2.06683 -2.4113,-2.06683 -1.952,0 -2.2965,0.57412 -3.3299,2.4113 -3.3299,5.51155 -10.449,9.18592 -17.9125,9.18592 -16.1902,0 -13.7789,-15.27159 -12.8603,-21.12762 h 34.6768 c 2.5261,0 3.6744,0 4.2485,-3.10024 0.5741,-3.55955 1.2631,-11.9417 -3.4447,-17.6829 -3.5596,-4.13366 -9.3008,-6.2005 -17.2236,-6.2005 -18.3719,0 -30.4284,11.82688 -32.7249,26.17988 -2.6409,15.38641 7.0043,26.52434 25.491,26.52434 18.1422,0 25.1464,-12.17134 25.4909,-14.12335 z m -8.3822,-15.38642 h -27.4429 c 0.9186,-4.47813 1.8372,-9.30074 4.9374,-13.08993 3.7892,-4.59296 8.6118,-5.97085 11.9417,-5.97085 13.4344,0 11.138,15.04194 10.5638,19.06078 z m -53.6226,28.82082 0.9186,-5.39672 h -7.9228 l 12.401,-74.29113 -20.5535,0.91859 -0.8038,5.39673 c 7.1191,0 7.9229,0 7.1191,4.47814 l -10.5638,63.49767 h -7.9229 l -0.9186,5.39672 14.2382,-0.34447 z m -36.3991,0 0.9186,-5.39672 c -7.1191,0 -7.9228,0 -7.2339,-4.47814 l 7.0043,-41.79593 -21.1276,0.91859 -0.9186,5.39673 c 7.119,0 7.9228,0 7.119,4.47813 l -3.5595,21.93139 c -1.6075,9.41556 -8.497,15.50123 -16.8791,15.50123 -8.8415,0 -8.7266,-2.8706 -7.6932,-9.07109 l 6.5449,-39.15498 -21.1276,0.91859 -0.9186,5.39673 c 7.1191,0 7.9229,0 7.1191,4.47813 l -4.3633,26.75399 c -2.0668,12.28617 6.7746,14.8123 18.1422,14.8123 2.9854,0 11.2527,0 18.0274,-8.95627 l -1.4927,8.95627 z m -74.9801,0 0.9186,-5.39672 c -7.1191,0 -7.9228,0 -7.2339,-4.47814 l 11.7121,-69.81299 -20.5535,0.91859 -0.8038,5.39673 c 7.1191,0 7.9228,0 7.1191,4.47814 l -3.6744,22.39068 c -5.0522,-4.47814 -10.9083,-5.16708 -14.6975,-5.16708 -16.7643,0 -30.5431,10.10451 -33.1841,26.29469 -2.5261,15.15677 6.2005,26.06505 23.1945,26.06505 7.0042,0 12.9751,-2.75578 16.9939,-5.62638 l -0.9186,5.62638 z m -19.0608,-11.82687 c -1.8371,2.06684 -7.5783,8.38215 -16.305,8.38215 -14.0085,0 -11.712,-13.8937 -10.3341,-21.93138 0.9186,-5.51155 1.952,-11.71205 5.6264,-16.19018 4.1336,-4.82261 9.76,-5.97085 13.3195,-5.97085 6.545,0 10.5638,3.67437 12.5159,7.00426 z m -51.44094,-1.60753 c 0.34447,-2.06683 -1.83719,-2.06683 -2.41131,-2.06683 -1.95201,0 -2.29648,0.57412 -3.32989,2.4113 -3.3299,5.51155 -10.44899,9.18592 -17.91255,9.18592 -16.19018,0 -13.77888,-15.27159 -12.86029,-21.12762 h 34.67685 c 2.52613,0 3.67433,0 4.24853,-3.10024 0.5741,-3.55955 1.263,-11.9417 -3.44476,-17.6829 -3.55954,-4.13366 -9.30074,-6.2005 -17.2236,-6.2005 -18.37184,0 -30.42836,11.82688 -32.72484,26.17988 -2.64095,15.38641 7.00426,26.52434 25.49093,26.52434 18.14219,0 25.14645,-12.17134 25.49093,-14.12335 z M 990.0518,677.5521 h -27.44293 c 0.91859,-4.47813 1.83718,-9.30074 4.93743,-13.08993 3.78919,-4.59296 8.6118,-5.97085 11.9417,-5.97085 13.4344,0 11.13792,15.04194 10.5638,19.06078 z m -53.39318,28.82082 0.91859,-5.39672 h -7.92285 l 4.93743,-29.73942 c 2.06683,-12.05652 -3.44472,-16.53465 -14.92712,-16.53465 -11.0231,0 -18.02737,6.65979 -21.24244,11.0231 h -0.11482 l 6.54496,-39.04016 -20.55349,0.91859 -0.80377,5.39673 c 7.11909,0 7.92286,0 7.11909,4.47814 l -10.56381,63.49767 h -7.92286 l -0.91859,5.39672 14.58265,-0.34447 14.353,0.34447 0.91859,-5.39672 h -7.92285 l 4.01884,-23.99822 c 2.06683,-12.51581 12.86028,-18.14219 20.0942,-18.14219 3.90401,0 5.97084,2.4113 4.47813,11.13793 l -5.16708,31.00248 h -7.92285 l -0.9186,5.39672 14.58265,-0.34447 z m -68.4349,-13.4344 c 0.22965,-1.60754 -1.37788,-1.60754 -2.52612,-1.60754 -2.06683,0 -2.18166,0.22965 -3.10025,1.72236 -4.13366,7.23391 -9.98969,9.41557 -15.84571,9.41557 -15.96054,0 -13.20476,-16.87913 -12.28617,-22.16103 1.03342,-6.43015 3.55954,-21.35727 18.37184,-21.35727 4.01884,0 5.85602,0.34448 7.34874,0.68895 -2.41131,1.83718 -2.98543,4.24849 -3.21508,5.2819 -0.80376,5.05226 2.8706,7.23391 5.97085,7.23391 3.55954,0 7.57838,-2.4113 8.38215,-7.23391 1.72236,-9.87486 -11.4824,-10.56381 -18.14219,-10.56381 -20.55349,0 -31.34695,13.20476 -33.52861,26.52435 -2.52612,15.27159 6.43015,26.17987 24.11304,26.17987 18.60149,0 24.22787,-13.31958 24.45751,-14.12335 z m -60.74185,-9.87487 c 2.06683,-12.74546 -5.62638,-22.0462 -15.73089,-24.22786 l -16.07536,-3.55954 c -4.36331,-1.03342 -10.21934,-4.93744 -8.95627,-11.9417 0.80377,-4.93743 5.16708,-12.05652 16.64948,-12.05652 9.18592,0 20.0942,3.90402 20.20902,19.52008 0,2.75578 -0.11482,2.98542 2.29648,2.98542 2.75578,0 2.8706,-0.57412 3.3299,-3.21507 l 3.55954,-21.01279 c 0.34447,-2.18166 0.4593,-3.21507 -1.60753,-3.21507 -0.9186,0 -1.03342,0.11482 -2.52613,1.26306 l -5.97085,5.05226 c -5.7412,-5.28191 -13.08994,-6.31532 -18.60149,-6.31532 -17.45325,0 -27.55776,11.0231 -29.50977,23.07962 -1.26306,7.46356 1.60754,12.74547 3.67437,15.27159 4.59296,5.62638 8.38215,6.43015 20.43867,9.18592 9.76004,2.18166 11.71205,2.52613 13.77888,4.93744 1.49272,1.72236 3.7892,4.70778 2.98543,9.98968 -0.91859,5.51156 -5.28191,13.43441 -17.2236,13.43441 -8.72663,0 -25.8354,-2.29648 -23.88339,-19.40525 0.22964,-2.06684 0.34447,-2.64096 -2.18166,-2.64096 -2.75578,0 -2.8706,0.68895 -3.3299,3.3299 l -3.44472,20.89797 c -0.34447,2.18165 -0.57412,3.21507 1.49272,3.21507 1.03341,0 1.26306,-0.22965 2.4113,-1.03342 l 6.08567,-5.2819 c 6.65979,5.62637 17.2236,6.31532 21.93139,6.31532 18.94596,0 28.2467,-12.97511 30.19871,-24.57234 z M 611.36281,660.7878 c 0.4593,-2.64095 -0.80376,-6.65979 -6.08567,-6.65979 -1.72236,0 -7.23391,0.34447 -12.86029,4.36331 -1.83718,-1.37789 -6.31532,-3.78919 -14.81229,-3.78919 -16.53466,0 -24.34269,8.95627 -25.72058,16.99395 -0.68894,4.70778 0.80377,9.41557 4.01884,12.05652 -3.90401,4.01884 -5.16708,7.80803 -5.62637,10.21933 -0.22965,1.72236 -0.80377,7.34874 3.21507,11.02311 -1.49271,0.34447 -10.33416,2.75577 -11.59723,9.98968 -0.91859,5.85603 3.90402,14.46783 26.86882,14.46783 20.32385,0 30.42836,-6.77462 31.80625,-14.8123 0.57412,-3.44472 0.91859,-10.67863 -6.2005,-14.58265 -5.85602,-3.21507 -12.74546,-3.21507 -23.76857,-3.21507 -2.98542,0 -8.26732,0 -8.84144,-0.11482 -4.93744,-0.80377 -5.39673,-5.16708 -5.05226,-7.23391 0.11482,-1.14824 0.91859,-2.8706 1.72236,-3.78919 4.82261,2.75577 10.67863,2.98542 13.54923,2.98542 16.53466,0 24.34269,-8.95627 25.60575,-16.99395 0.9186,-5.39673 -1.26306,-9.18592 -2.75577,-11.02311 3.78919,-1.83718 6.20049,-2.06683 7.57838,-2.18165 -0.34447,0.57412 -0.80377,1.60753 -0.91859,2.29648 -0.4593,2.8706 1.14824,4.93743 4.13366,4.93743 2.98543,0 5.28191,-2.18166 5.7412,-4.93743 z m -26.52434,10.90828 c -0.80377,5.16708 -2.06683,12.86029 -12.17134,12.86029 -10.10452,0 -8.84145,-7.69321 -8.03768,-12.86029 0.91859,-5.16708 2.18165,-12.86029 12.28616,-12.86029 10.10452,0 8.84145,7.69321 7.92286,12.86029 z m 5.7412,43.28864 c -0.68894,4.13367 -6.2005,10.33416 -21.12762,10.33416 -13.77888,0 -18.48666,-5.2819 -17.56807,-10.5638 1.14824,-6.88944 8.38215,-6.88944 9.98969,-6.88944 h 13.43441 c 3.55954,0 16.53465,0 15.27159,7.11908 z m -53.62283,-8.6118 0.91859,-5.39672 h -7.92286 l 4.93744,-29.73942 c 2.06683,-12.05652 -3.44472,-16.53465 -14.92712,-16.53465 -11.02311,0 -18.14219,6.54496 -22.16103,12.40099 l 2.06683,-12.40099 -19.86455,0.91859 -0.9186,5.39673 c 7.11909,0 7.92286,0 7.11909,4.47813 l -5.85602,35.48062 h -7.92286 l -0.91859,5.39672 14.58265,-0.34447 14.353,0.34447 0.91859,-5.39672 h -7.92286 l 4.01884,-23.99822 c 2.06684,-12.51581 12.86029,-18.14219 20.0942,-18.14219 3.90402,0 5.97085,2.4113 4.47814,11.13793 l -5.16708,31.00248 h -7.92286 l -0.91859,5.39672 14.58265,-0.34447 z m -74.40576,0 0.91859,-5.39672 h -7.11908 l 7.6932,-46.27407 -20.0942,0.91859 -0.91859,5.39673 c 6.77462,0 7.57839,0 6.77462,4.47813 l -5.85603,35.48062 h -7.92285 l -0.91859,5.39672 14.12335,-0.34447 z m 6.08567,-69.69816 c 0.80377,-4.93743 -2.52612,-8.95627 -7.46356,-8.95627 -4.93743,0 -9.64521,4.01884 -10.44898,8.95627 -0.80377,4.93743 2.52613,8.95627 7.46356,8.95627 4.93743,0 9.64522,-4.01884 10.44898,-8.95627 z m -41.68107,69.69816 0.91859,-5.39672 h -7.92285 l 4.93743,-29.73942 c 2.06683,-12.05652 -3.44472,-16.53465 -14.92712,-16.53465 -11.02311,0 -18.14219,6.54496 -22.16103,12.40099 l 2.06683,-12.40099 -19.86455,0.91859 -0.9186,5.39673 c 7.11909,0 7.92286,0 7.11909,4.47813 l -5.85602,35.48062 h -7.92286 l -0.91859,5.39672 14.58265,-0.34447 14.353,0.34447 0.91859,-5.39672 h -7.92286 l 4.01884,-23.99822 c 2.06684,-12.51581 12.86029,-18.14219 20.0942,-18.14219 3.90402,0 5.97085,2.4113 4.47814,11.13793 l -5.16708,31.00248 h -7.92286 l -0.91859,5.39672 14.58265,-0.34447 z m -73.37253,0 0.91859,-5.39672 c -7.11908,0 -7.92285,0 -7.23391,-4.47814 l 7.00426,-41.79593 -21.12761,0.91859 -0.91859,5.39673 c 7.11909,0 7.92285,0 7.11909,4.47813 l -3.55955,21.93139 c -1.60753,9.41556 -8.49697,15.50123 -16.87913,15.50123 -8.84144,0 -8.72662,-2.8706 -7.6932,-9.07109 l 6.54496,-39.15498 -21.12761,0.91859 -0.91859,5.39673 c 7.11908,0 7.92285,0 7.11908,4.47813 l -4.36331,26.75399 c -2.06683,12.28617 6.77462,14.8123 18.14219,14.8123 2.98543,0 11.25276,0 18.02737,-8.95627 l -1.49271,8.95627 z m -56.2636,-49.83361 2.29648,-27.67258 h -77.27655 l -7.11909,27.67258 h 5.39673 c 3.21507,-12.97511 5.97085,-22.27586 22.5055,-22.27586 h 8.84145 l -11.13793,66.71275 h -17.56807 l -0.91859,5.39672 c 6.31532,-0.34447 19.06078,-0.34447 25.8354,-0.34447 6.77461,0 19.52008,0 25.60575,0.34447 l 0.91859,-5.39672 h -17.56807 l 11.13793,-66.71275 h 8.72662 c 16.41983,0 15.96054,9.18592 14.92712,22.27586 z m -99.32269,29.85424 1.83718,-11.13793 h -35.02132 l -1.83718,11.13793 z m -41.33648,6.54497 c 0.34447,-2.06683 -1.83718,-2.06683 -2.4113,-2.06683 -1.95201,0 -2.29648,0.57412 -3.3299,2.4113 -3.32989,5.51155 -10.44898,9.18592 -17.91254,9.18592 -16.19019,0 -13.77888,-15.27159 -12.86029,-21.12762 h 34.67685 c 2.52612,0 3.67436,0 4.24848,-3.10024 0.57412,-3.55955 1.26307,-11.9417 -3.44472,-17.6829 -3.55954,-4.13366 -9.30074,-6.2005 -17.22359,-6.2005 -18.37184,0 -30.42836,11.82688 -32.72484,26.17988 -2.64096,15.38641 7.00426,26.52434 25.49092,26.52434 18.1422,0 25.14646,-12.17134 25.49093,-14.12335 z m -8.38215,-15.38642 h -27.44294 c 0.9186,-4.47813 1.83719,-9.30074 4.93744,-13.08993 3.78919,-4.59296 8.6118,-5.97085 11.94169,-5.97085 13.43441,0 11.13793,15.04194 10.56381,19.06078 z m -53.393153,28.82082 0.918592,-5.39672 h -7.922856 l 4.937432,-29.73942 c 2.066832,-12.05652 -3.44472,-16.53465 -14.92712,-16.53465 -11.023104,0 -18.142192,6.54496 -22.161032,12.40099 l 2.066832,-12.40099 -19.864551,0.91859 -0.918592,5.39673 c 7.119088,0 7.922856,0 7.119088,4.47813 L 38.276846,700.9762 H 30.35399 l -0.918592,5.39672 14.582648,-0.34447 14.352999,0.34447 0.918592,-5.39672 h -7.922855 l 4.018839,-23.99822 c 2.066832,-12.51581 12.860288,-18.14219 20.0942,-18.14219 3.904016,0 5.970848,2.4113 4.478136,11.13793 l -5.16708,31.00248 h -7.922856 l -0.918592,5.39672 14.582648,-0.34447 z m -74.405758,0 0.918592,-5.39672 h -7.119088 l 7.693208,-46.27407 -20.0941992,0.91859 -0.91859202,5.39673 c 6.77461582,0 7.57838382,0 6.77461582,4.47813 L 1.8778318,700.9762 h -7.9228559 l -0.918592,5.39672 14.1233517,-0.34447 z m 6.085672,-69.69816 c 0.803768,-4.93743 -2.526128,-8.95627 -7.46356,-8.95627 -4.937432,0 -9.6452154,4.01884 -10.4489834,8.95627 -0.803768,4.93743 2.5261284,8.95627 7.4635594,8.95627 4.937432,0 9.645216,-4.01884 10.448984,-8.95627 z m -36.1694464,19.29043 1.033416,-27.67258 H -78.039558 l -0.803768,5.39672 h 12.400992 l -11.252752,67.28687 h -12.400992 l -0.918592,5.39672 c 4.478136,-0.34447 16.07536,-0.34447 21.127616,-0.34447 5.626376,0 18.142192,0 23.079623,0.34447 l 0.918592,-5.39672 h -15.501239 l 5.16708,-31.00248 h 5.7412 c 11.023103,0 11.252751,4.93743 9.760039,13.43441 h 5.396728 l 5.396728,-32.26555 h -5.396728 c -1.377888,8.49698 -3.100248,13.43441 -14.238175,13.43441 h -5.7412 l 5.16708,-30.88766 h 16.075359 c 18.486664,0 19.634904,8.84145 19.060784,22.27586 z M 715.56776,754.99496 c 9.92892,-4.43566 16.82086,10.22496 5.38058,11.44565 -11.9636,3.43765 -15.97876,-9.40814 -5.38058,-11.44565 z m 12.58352,-0.64404 c 21.46072,9.01962 9.31874,39.5123 -12.85766,28.10811 -22.6158,-11.01302 -8.4298,-38.28037 12.85766,-28.10811 z M 656.76273,574.33541 c -6.92278,1.71857 -4.60683,8.98747 -1.73166,13.82802 13.72242,29.18009 27.44484,58.36017 41.16726,87.54026 2.07727,5.75416 -5.58966,5.65664 -9.49629,7.06558 -6.12969,1.42678 -11.99334,3.59094 -18.30853,4.50361 -5.40782,-1.42194 -5.7249,-7.32361 -8.14337,-11.16053 -13.22847,-28.12971 -26.45693,-56.25942 -39.68539,-84.38913 -4.34415,-9.95664 -20.58813,-3.81099 -14.00992,5.22917 12.5885,26.6128 24.91934,53.30262 37.66961,79.86708 5.55366,9.98721 19.69298,14.39218 29.51822,10.46551 3.13277,-1.24392 3.09038,4.45338 4.7992,6.32237 9.89819,20.86877 19.30815,41.88716 29.41707,62.68703 6.0276,8.67137 19.41452,1.1224 12.98993,-7.04473 -10.35007,-22.00895 -20.70014,-44.0179 -31.05021,-66.02685 8.58646,-1.4704 16.43999,-6.57749 16.8362,-15.11074 0.42218,-8.16638 -5.41064,-15.82681 -8.53368,-23.65644 -10.52365,-22.14367 -20.66272,-44.40832 -31.42805,-66.47596 -2.08669,-3.15917 -6.5991,-4.85948 -10.01039,-3.64425 z m 0,0 c -6.92278,1.71857 -4.60683,8.98747 -1.73166,13.82802 13.72242,29.18009 27.44484,58.36017 41.16726,87.54026 2.07727,5.75416 -5.58966,5.65664 -9.49629,7.06558 -6.12969,1.42678 -11.99334,3.59094 -18.30853,4.50361 -5.40782,-1.42194 -5.7249,-7.32361 -8.14337,-11.16053 -13.22847,-28.12971 -26.45693,-56.25942 -39.68539,-84.38913 -4.34415,-9.95664 -20.58813,-3.81099 -14.00992,5.22917 14.64254,30.98046 29.0272,62.038 43.83153,92.97011 5.55366,9.98722 19.69298,14.39218 29.51822,10.46551 3.13388,-1.2442 3.07636,4.45708 4.77899,6.3277 9.86165,20.87828 19.32785,41.88208 29.43728,62.68171 6.0276,8.67137 19.41452,1.1224 12.98993,-7.04473 -10.41048,-22.13741 -20.82096,-44.27482 -31.23145,-66.41223 8.58646,-1.4704 16.44,-6.5775 16.8362,-15.11075 0.42218,-8.16638 -5.41063,-15.8268 -8.53367,-23.65644 -12.5579,-26.46866 -24.73093,-53.06015 -37.53016,-79.45179 -2.1258,-3.05931 -6.57952,-4.54534 -9.88897,-3.38607 z" />
      </g>
    </g>
  </g>
</svg>
